<svg width="9" height="16" viewBox="0 0 9 16" fill="none" xmlns="http://www.w3.org/2000/svg">
<mask id="path-1-inside-1_4_6" fill="white">
<path d="M0.758523 12V3.27273H6.6392V4.79403H2.60369V6.87358H6.33665V8.39489H2.60369V10.4787H6.65625V12H0.758523Z"/>
</mask>
<path d="M0.758523 12V3.27273H6.6392V4.79403H2.60369V6.87358H6.33665V8.39489H2.60369V10.4787H6.65625V12H0.758523Z" fill="#FF7474"/>
<path d="M0.758523 12H0.658523V12.1H0.758523V12ZM0.758523 3.27273V3.17273H0.658523V3.27273H0.758523ZM6.6392 3.27273H6.7392V3.17273H6.6392V3.27273ZM6.6392 4.79403V4.89403H6.7392V4.79403H6.6392ZM2.60369 4.79403V4.69403H2.50369V4.79403H2.60369ZM2.60369 6.87358H2.50369V6.97358H2.60369V6.87358ZM6.33665 6.87358H6.43665V6.77358H6.33665V6.87358ZM6.33665 8.39489V8.49489H6.43665V8.39489H6.33665ZM2.60369 8.39489V8.29489H2.50369V8.39489H2.60369ZM2.60369 10.4787H2.50369V10.5787H2.60369V10.4787ZM6.65625 10.4787H6.75625V10.3787H6.65625V10.4787ZM6.65625 12V12.1H6.75625V12H6.65625ZM0.858523 12V3.27273H0.658523V12H0.858523ZM0.758523 3.37273H6.6392V3.17273H0.758523V3.37273ZM6.5392 3.27273V4.79403H6.7392V3.27273H6.5392ZM6.6392 4.69403H2.60369V4.89403H6.6392V4.69403ZM2.50369 4.79403V6.87358H2.70369V4.79403H2.50369ZM2.60369 6.97358H6.33665V6.77358H2.60369V6.97358ZM6.23665 6.87358V8.39489H6.43665V6.87358H6.23665ZM6.33665 8.29489H2.60369V8.49489H6.33665V8.29489ZM2.50369 8.39489V10.4787H2.70369V8.39489H2.50369ZM2.60369 10.5787H6.65625V10.3787H2.60369V10.5787ZM6.55625 10.4787V12H6.75625V10.4787H6.55625ZM6.65625 11.9H0.758523V12.1H6.65625V11.9Z" fill="black" fill-opacity="0.6" mask="url(#path-1-inside-1_4_6)"/>
<mask id="path-3-inside-2_4_6" fill="white">
<path d="M1.75852 13V4.27273H7.6392V5.79403H3.60369V7.87358H7.33665V9.39489H3.60369V11.4787H7.65625V13H1.75852Z"/>
</mask>
<path d="M1.75852 13V4.27273H7.6392V5.79403H3.60369V7.87358H7.33665V9.39489H3.60369V11.4787H7.65625V13H1.75852Z" fill="#0883FD"/>
<path d="M1.75852 13H1.65852V13.1H1.75852V13ZM1.75852 4.27273V4.17273H1.65852V4.27273H1.75852ZM7.6392 4.27273H7.7392V4.17273H7.6392V4.27273ZM7.6392 5.79403V5.89403H7.7392V5.79403H7.6392ZM3.60369 5.79403V5.69403H3.50369V5.79403H3.60369ZM3.60369 7.87358H3.50369V7.97358H3.60369V7.87358ZM7.33665 7.87358H7.43665V7.77358H7.33665V7.87358ZM7.33665 9.39489V9.49489H7.43665V9.39489H7.33665ZM3.60369 9.39489V9.29489H3.50369V9.39489H3.60369ZM3.60369 11.4787H3.50369V11.5787H3.60369V11.4787ZM7.65625 11.4787H7.75625V11.3787H7.65625V11.4787ZM7.65625 13V13.1H7.75625V13H7.65625ZM1.85852 13V4.27273H1.65852V13H1.85852ZM1.75852 4.37273H7.6392V4.17273H1.75852V4.37273ZM7.5392 4.27273V5.79403H7.7392V4.27273H7.5392ZM7.6392 5.69403H3.60369V5.89403H7.6392V5.69403ZM3.50369 5.79403V7.87358H3.70369V5.79403H3.50369ZM3.60369 7.97358H7.33665V7.77358H3.60369V7.97358ZM7.23665 7.87358V9.39489H7.43665V7.87358H7.23665ZM7.33665 9.29489H3.60369V9.49489H7.33665V9.29489ZM3.50369 9.39489V11.4787H3.70369V9.39489H3.50369ZM3.60369 11.5787H7.65625V11.3787H3.60369V11.5787ZM7.55625 11.4787V13H7.75625V11.4787H7.55625ZM7.65625 12.9H1.75852V13.1H7.65625V12.9Z" fill="black" fill-opacity="0.6" mask="url(#path-3-inside-2_4_6)"/>
</svg>
